<?xml version="1.0" standalone="no"?>
<!DOCTYPE svg PUBLIC "-//W3C//DTD SVG 20010904//EN"
 "http://www.w3.org/TR/2001/REC-SVG-20010904/DTD/svg10.dtd">
<svg version="1.0" xmlns="http://www.w3.org/2000/svg"
 width="1024.000000pt" height="1024.000000pt" viewBox="0 0 1024.000000 1024.000000"
 preserveAspectRatio="xMidYMid meet">

<g transform="translate(0.000000,1024.000000) scale(0.100000,-0.100000)"
fill="#000000" stroke="none">
<path d="M5135 8673 c-160 -6 -382 -23 -485 -38 -287 -42 -772 -194 -1025
-322 -38 -20 -80 -41 -93 -47 -13 -6 -21 -17 -18 -26 2 -8 15 -45 28 -82 l24
-67 29 19 c48 32 326 147 495 206 216 75 397 118 622 150 174 25 223 28 493
28 279 1 313 -1 490 -27 375 -56 680 -151 1000 -312 315 -159 513 -293 760
-516 326 -294 546 -592 769 -1039 147 -296 230 -523 294 -810 48 -212 63 -329
69 -550 14 -513 -48 -882 -224 -1340 -207 -535 -623 -1075 -1118 -1451 -315
-240 -718 -438 -1130 -555 -158 -45 -187 -52 -325 -72 -241 -36 -390 -45 -655
-39 -425 9 -669 50 -996 167 -243 87 -436 176 -619 285 -58 34 -125 74 -150
88 -191 107 -536 407 -739 642 -108 125 -275 361 -372 525 -138 234 -255 525
-323 801 -71 288 -96 499 -96 800 0 494 107 971 315 1405 36 74 65 144 65 155
0 11 -7 34 -17 52 -9 18 -21 52 -28 76 -6 25 -16 46 -22 48 -24 8 -116 -154
-213 -376 -124 -284 -225 -678 -265 -1036 -17 -151 -20 -477 -5 -626 26 -258
97 -591 173 -814 66 -191 205 -490 276 -594 10 -14 32 -53 50 -86 72 -129 311
-441 461 -599 146 -154 425 -385 615 -508 317 -205 745 -397 1078 -483 419
-108 875 -140 1277 -89 307 39 534 88 741 160 682 236 1240 620 1643 1129 350
442 542 817 671 1308 55 213 82 358 100 547 26 261 14 666 -25 892 -84 483
-275 963 -558 1403 -163 252 -276 398 -442 569 -546 563 -1276 928 -2040 1020
-179 22 -414 34 -555 29z"/>
<path d="M3043 8291 c-95 -6 -104 -8 -132 -35 -22 -21 -31 -40 -33 -70 l-3
-41 -110 -7 c-104 -7 -111 -9 -140 -38 -27 -28 -30 -36 -29 -94 l0 -64 -92 -4
c-99 -3 -125 -14 -168 -71 -17 -23 -20 -41 -19 -116 l1 -89 -72 -7 c-39 -3
-77 -9 -82 -13 -21 -13 -34 -51 -34 -96 l0 -46 -42 -1 c-65 0 -110 -20 -136
-59 -22 -33 -23 -42 -20 -167 3 -127 4 -134 29 -158 21 -21 38 -27 96 -32 l71
-6 5 -50 c6 -71 29 -87 118 -87 l69 0 -2 -97 c-2 -86 0 -103 21 -139 34 -60
66 -75 166 -77 l84 -2 7 -45 c5 -29 16 -54 35 -72 27 -27 31 -28 133 -28 l106
0 0 -26 c0 -37 28 -90 62 -119 29 -25 32 -25 212 -25 169 0 185 2 209 20 53
42 65 102 84 424 17 292 17 296 39 296 12 0 35 3 51 6 28 6 29 5 41 -54 14
-67 47 -136 98 -201 18 -24 32 -47 29 -51 -2 -4 -14 -81 -25 -171 -11 -90 -27
-195 -36 -234 -8 -38 -28 -144 -44 -235 -30 -172 -39 -214 -95 -445 -61 -256
-78 -401 -72 -635 5 -215 16 -285 64 -430 18 -54 27 -111 33 -206 9 -137 17
-165 67 -233 52 -68 223 -157 348 -180 89 -17 164 -13 339 14 193 30 214 30
442 5 199 -22 525 -27 634 -9 129 21 379 88 495 133 179 70 355 177 486 294
l48 43 16 -37 c8 -20 15 -39 15 -41 0 -18 99 -226 139 -294 115 -190 218 -296
421 -427 175 -113 186 -124 201 -185 18 -77 72 -234 114 -332 21 -47 36 -87
34 -89 -2 -2 -49 -43 -104 -92 -105 -93 -205 -173 -242 -192 -12 -7 -52 -13
-90 -14 -45 -1 -55 -3 -28 -5 22 -3 44 -8 48 -12 14 -14 -196 -152 -343 -226
-65 -33 -354 -147 -460 -181 -226 -74 -586 -134 -802 -134 -126 0 -382 16
-488 31 -107 15 -438 94 -534 128 -181 64 -261 100 -225 102 41 1 97 9 124 18
23 7 -1 9 -96 10 -119 1 -130 3 -195 32 -154 69 -494 291 -604 394 -142 133
-165 154 -209 192 -24 21 -77 82 -117 135 -41 54 -98 127 -127 161 -71 84
-122 160 -192 287 -32 58 -71 128 -86 156 -16 28 -47 100 -69 159 -23 59 -48
121 -56 136 -8 16 -27 82 -43 146 -16 65 -38 152 -49 193 -11 41 -22 110 -26
152 l-7 77 388 1 c213 0 389 3 392 5 2 3 -174 5 -391 5 -362 0 -396 1 -402 17
-4 9 -9 79 -13 156 -5 115 -3 138 8 137 31 -5 42 3 14 9 -29 6 -30 8 -28 61 0
30 2 83 2 118 1 42 5 62 14 62 8 0 7 3 -3 10 -12 8 -12 22 3 112 9 57 19 130
22 163 4 33 17 96 30 140 14 44 31 112 39 150 16 78 20 91 49 155 11 25 30 74
43 110 33 95 101 237 115 242 7 2 -8 21 -34 42 -25 20 -50 50 -56 67 -11 33
-41 40 -41 10 0 -11 -5 -23 -11 -27 -20 -12 -114 -223 -163 -363 -168 -483
-215 -978 -140 -1461 67 -432 217 -822 449 -1170 375 -562 788 -908 1406
-1178 213 -94 494 -178 731 -221 211 -38 697 -39 948 -2 491 72 1002 281 1390
570 363 270 680 637 916 1059 237 425 356 959 341 1527 -7 257 -27 412 -79
620 -65 260 -150 476 -289 737 -253 473 -534 805 -929 1097 -228 169 -623 368
-844 425 -118 31 -126 32 -126 6 0 -14 9 -21 38 -25 114 -19 210 -91 231 -175
17 -66 22 -72 82 -92 134 -45 410 -204 584 -336 126 -96 225 -184 219 -194 -4
-6 -2 -8 4 -4 20 12 292 -278 292 -313 0 -6 4 -11 10 -11 13 0 121 -144 157
-211 17 -32 39 -68 48 -83 9 -14 14 -30 10 -35 -3 -6 0 -9 7 -6 8 3 28 -17 51
-51 20 -32 36 -58 34 -60 -5 -5 -238 -134 -412 -228 -93 -51 -179 -98 -191
-105 -18 -12 -28 -11 -70 3 -86 30 -205 46 -343 46 -246 0 -461 -48 -651 -146
-154 -79 -365 -244 -406 -317 -9 -16 -16 -16 -65 -6 -61 13 -242 7 -329 -11
-212 -45 -358 -120 -504 -260 -96 -92 -122 -101 -131 -42 -14 93 -41 167 -107
297 -85 168 -92 204 -107 505 -17 332 -14 470 10 470 19 0 309 194 343 229 21
21 43 56 51 77 l13 39 69 3 68 3 3 -178 c6 -307 17 -444 41 -490 40 -80 50
-83 255 -83 162 0 184 2 213 20 36 22 57 57 67 113 l7 37 105 0 c116 0 149 10
179 56 10 15 18 44 18 64 l0 37 81 2 c160 3 188 30 196 191 l5 105 77 5 c42 3
83 10 89 17 7 7 14 37 17 67 l4 54 68 4 c116 6 140 45 140 223 0 118 -5 141
-43 183 -17 19 -31 22 -89 22 l-68 0 0 34 c0 19 -3 42 -6 51 -11 28 -60 45
-129 45 l-65 0 0 96 c0 168 -34 204 -192 204 l-98 0 6 43 c7 52 -14 109 -50
132 -20 14 -49 17 -146 16 l-120 -1 0 48 c-1 51 -14 75 -57 104 -24 15 -50 18
-189 18 -89 0 -176 -3 -194 -6 -49 -10 -97 -66 -109 -128 -6 -28 -12 -166 -13
-307 l-2 -257 -52 -6 c-52 -6 -53 -5 -104 41 -29 27 -80 76 -114 110 -65 65
-105 81 -164 68 -23 -5 -36 0 -60 20 -35 29 -102 55 -144 55 -16 0 -52 -10
-79 -21 -49 -22 -50 -22 -92 -3 -24 11 -61 18 -88 18 -44 -2 -65 -10 -138 -56
-30 -19 -48 -22 -125 -21 -70 1 -98 -3 -127 -17 -50 -26 -108 -96 -122 -147
l-11 -43 -98 0 -98 0 0 213 c0 330 -15 410 -83 461 -24 18 -44 21 -120 22 -51
1 -138 -1 -194 -5z m232 -493 c-4 -568 -7 -764 -12 -745 -6 24 -23 21 -24 -5
-1 -15 -4 -11 -9 12 l-7 35 -3 -30 -3 -30 -7 35 c-6 30 -8 31 -9 9 -1 -30 -17
-39 -66 -39 -31 0 -35 -4 -46 -40 -10 -34 -16 -40 -40 -40 -18 0 -29 -6 -32
-17 -3 -10 -5 66 -6 170 -1 143 2 187 12 188 10 0 10 2 0 6 -10 4 -13 97 -13
417 0 227 3 416 7 419 3 4 64 7 134 7 l127 0 -3 -352z m2220 -215 c-2 -320 -8
-581 -14 -598 -9 -29 -9 -28 -10 15 -2 42 -3 44 -16 26 -13 -17 -15 -18 -15
-3 0 15 -27 23 -61 19 -4 -1 -30 7 -58 18 -35 12 -51 15 -51 7 0 -9 -2 -9 -8
-1 -4 6 -15 10 -25 8 -17 -2 -18 6 -16 117 1 65 -1 122 -4 126 -4 3 -7 190 -7
414 l0 408 28 4 c15 2 80 5 144 6 l118 1 -5 -567z m310 -2 c-4 -223 -9 -417
-10 -431 -2 -14 -4 -30 -4 -36 -1 -14 -133 -13 -143 1 -11 14 -10 163 1 169 4
3 7 -7 5 -22 -2 -18 -1 -20 3 -7 l6 20 8 -20 c7 -19 8 -19 8 3 1 17 7 22 29
22 15 0 38 3 50 7 38 10 5 23 -60 23 -32 0 -58 3 -58 8 -1 4 -2 154 -4 334
l-4 327 52 5 c97 11 111 12 120 7 5 -2 6 -172 1 -410z m-2940 57 c-3 -194 -7
-395 -8 -445 l-2 -93 -62 0 -63 0 0 90 c0 89 0 90 25 90 19 0 25 -5 26 -22 l0
-23 9 23 c5 12 14 22 20 22 5 0 10 5 10 10 0 6 -6 10 -12 9 -7 -1 -28 -1 -45
0 l-32 1 -3 345 -3 345 73 0 74 0 -7 -352z m-280 -80 c-3 -139 -5 -292 -5
-340 l0 -86 -64 -4 -65 -3 -3 95 c-2 52 -2 206 0 343 l3 247 70 0 70 0 -6
-252z m3500 198 c4 -23 5 -181 3 -350 -4 -336 -4 -333 -61 -313 -22 7 -32 7
-35 -1 -2 -6 -10 -8 -18 -5 -8 3 -15 -1 -15 -8 -1 -8 -5 0 -9 16 -13 51 -11
170 3 184 7 9 8 12 0 7 -8 -4 -12 45 -15 191 -1 109 -1 226 0 261 l4 62 68 0
69 0 6 -44z m-1859 -66 c41 -121 57 -206 58 -305 1 -95 -1 -106 -21 -127 -50
-50 -173 -18 -187 49 -11 51 -26 377 -19 384 14 13 107 38 133 36 18 -1 27
-11 36 -37z m274 -16 c22 -15 84 -43 139 -64 110 -42 187 -89 203 -126 12 -26
-2 -117 -44 -288 -33 -136 -63 -176 -195 -259 -127 -81 -202 -113 -325 -137
-34 -7 -58 -17 -58 -24 0 -16 47 -60 88 -80 l32 -17 0 -192 c0 -203 14 -442
31 -542 15 -89 37 -152 79 -225 21 -36 51 -94 66 -130 28 -63 29 -71 29 -225
0 -154 -2 -163 -33 -254 -37 -105 -86 -199 -143 -272 -45 -56 -99 -139 -99
-151 0 -15 58 -8 112 12 110 42 188 124 239 252 11 29 36 107 54 173 43 158
60 164 67 27 9 -157 68 -280 198 -411 80 -81 157 -133 261 -174 80 -32 146
-44 290 -53 l114 -7 -70 -17 c-77 -18 -98 -27 -90 -40 3 -4 -2 -11 -11 -14 -8
-3 -13 -10 -10 -15 4 -5 -2 -12 -11 -14 -13 -3 -10 -5 7 -6 14 -1 31 -5 39
-10 16 -11 -111 -61 -219 -85 -41 -10 -86 -22 -99 -27 -16 -7 -28 -6 -39 3
-13 11 -15 10 -9 -5 4 -11 3 -16 -4 -12 -5 4 -21 -5 -34 -19 -15 -16 -25 -21
-28 -13 -3 8 -10 7 -25 -7 -11 -10 -26 -16 -32 -14 -6 2 8 14 32 27 51 28 124
95 144 133 20 38 18 78 -4 78 -9 0 -50 -16 -89 -35 -40 -19 -75 -35 -79 -35
-3 0 -42 -18 -85 -40 -112 -56 -258 -113 -296 -114 -17 -1 -29 -4 -27 -7 5 -8
-94 -4 -116 4 -8 4 -49 8 -90 10 -97 5 -248 57 -368 126 -83 48 -170 121 -144
121 6 0 9 7 5 16 -4 11 -8 12 -13 4 -7 -12 -74 72 -90 114 -5 13 -23 46 -40
75 -30 48 -33 51 -47 34 -8 -10 -11 -11 -7 -3 7 13 5 13 -8 2 -14 -11 -18 -8
-32 19 -30 60 -40 151 -40 354 0 215 14 342 60 540 74 322 161 772 185 958 7
53 17 101 23 106 6 5 48 20 92 33 45 12 83 28 85 33 2 6 -33 22 -79 37 -46 15
-99 38 -117 52 -36 28 -95 135 -95 173 0 22 2 23 93 23 50 0 115 3 144 6 l52
7 16 -57 c12 -41 25 -63 50 -82 39 -30 55 -25 55 16 0 38 52 98 105 121 22 9
87 27 145 39 175 37 240 80 259 172 6 27 11 55 11 62 0 7 11 23 25 36 38 35
32 50 -18 50 -34 0 -61 10 -123 48 -65 39 -84 56 -106 97 -29 53 -36 103 -16
123 18 18 34 15 78 -14z m-587 -26 c3 -13 11 -69 17 -124 6 -56 15 -117 20
-135 16 -56 12 -78 -16 -91 -25 -11 -29 -10 -56 22 -43 51 -57 83 -74 163 -29
135 -29 131 6 160 41 35 95 37 103 5z m-1619 -134 c18 -7 21 -58 10 -151 -6
-48 -8 -51 -27 -42 -15 8 -22 8 -28 -2 -6 -10 -9 -10 -9 -2 0 7 8 17 18 22 15
9 15 10 1 11 -11 0 -18 12 -23 38 -8 49 -8 117 1 125 8 9 36 9 57 1z m4014
-76 l-3 -73 -37 -3 -38 -3 0 75 0 76 40 0 41 0 -3 -72z m-1232 18 c3 -8 2 -66
-3 -128 l-8 -113 -49 -3 -48 -3 7 28 c13 52 25 138 25 180 0 35 3 42 23 46 41
8 48 7 53 -7z m-1380 -73 c15 -64 25 -85 56 -117 21 -21 37 -40 35 -42 -1 -2
-81 -4 -176 -4 l-174 -2 -3 121 -3 121 123 0 124 0 18 -77z m757 -16 c-3 -6
-1 -7 5 -3 19 11 52 -13 52 -37 0 -29 -27 -67 -47 -67 -30 0 -53 31 -53 72 0
21 5 38 11 38 5 0 8 4 5 9 -4 5 3 7 14 4 11 -3 17 -10 13 -16z m2030 16 c3 -5
2 -28 -2 -53 -5 -36 -10 -46 -28 -48 -18 -3 -23 3 -28 32 -10 49 1 76 30 76
13 0 26 -3 28 -7z m-4365 -51 c3 -39 1 -42 -21 -42 -26 0 -37 16 -37 55 0 24
14 35 40 32 10 -2 16 -16 18 -45z m180 -142 l2 -110 -30 0 c-30 0 -30 1 -30
53 0 28 3 63 7 77 l7 25 7 -25 c6 -20 7 -17 8 18 1 24 7 49 14 57 6 8 12 14
12 15 0 0 1 -49 3 -110z m3985 -38 c9 -23 17 -54 17 -67 0 -22 -4 -25 -35 -25
l-35 0 0 63 c0 34 3 72 6 85 6 21 7 22 19 5 6 -10 19 -37 28 -61z m184 72 c-3
-3 -12 -4 -19 -1 -8 3 -5 6 6 6 11 1 17 -2 13 -5z m-1107 -199 c0 -8 -5 -15
-11 -15 -5 0 -8 4 -5 9 4 5 0 12 -6 14 -8 3 -6 6 5 6 9 1 17 -6 17 -14z
m-2343 -182 c-3 -10 -5 -4 -5 12 0 17 2 24 5 18 2 -7 2 -21 0 -30z m3065 -30
l4 -33 -69 0 -68 0 3 27 c3 25 7 28 48 31 24 2 46 4 47 6 2 1 9 3 17 3 9 0 16
-13 18 -34z m-3499 -23 c4 0 7 -6 7 -12 0 -10 -19 -12 -70 -10 -51 3 -70 7
-70 17 0 11 14 13 63 10 34 -2 65 -5 70 -5z m434 -12 c-3 -8 -6 -5 -6 6 -1 11
2 17 5 13 3 -3 4 -12 1 -19z m2460 -10 c-3 -7 -5 -2 -5 12 0 14 2 19 5 13 2
-7 2 -19 0 -25z m219 -78 c15 -6 42 -11 60 -12 24 -1 34 -7 38 -21 3 -11 3
-24 0 -29 -5 -8 -137 -12 -145 -3 -8 7 3 75 11 75 5 0 21 -5 36 -10z m-2909
-57 c14 4 14 5 -4 6 -13 0 -23 5 -23 9 0 12 43 9 52 -3 5 -6 8 -5 8 2 0 7 7
10 15 7 8 -4 15 -12 15 -20 0 -10 -15 -14 -55 -14 -30 0 -55 2 -55 4 0 2 -3
13 -7 23 -6 17 -6 17 15 0 11 -10 29 -17 39 -14z m2703 -138 c0 -40 -5 -41
-145 -40 l-100 0 -2 35 -1 35 8 -30 8 -30 1 29 c1 24 3 27 16 16 10 -8 28 -10
52 -5 22 4 32 10 25 14 -7 4 2 8 20 8 53 0 88 7 88 16 0 5 7 4 15 -3 8 -7 15
-27 15 -45z m-2460 -5 c0 -10 -4 -22 -10 -25 -6 -4 -10 7 -10 25 0 18 4 29 10
25 6 -3 10 -15 10 -25z m227 -22 c-3 -8 -6 -5 -6 6 -1 11 2 17 5 13 3 -3 4
-12 1 -19z m4641 -140 c18 -30 100 -251 147 -398 10 -30 20 -61 23 -69 7 -19
-46 -11 -198 30 -94 26 -168 55 -299 120 l-174 85 99 56 c54 30 158 86 229
123 72 37 134 71 140 76 12 12 11 13 33 -23z m-909 -273 c113 -20 190 -40 269
-71 83 -32 360 -167 387 -189 19 -14 16 -15 -40 -10 -64 7 -166 23 -193 31 -9
3 3 -5 28 -18 51 -25 72 -43 63 -52 -4 -3 0 -6 8 -7 13 -1 -11 -10 -76 -30
-29 -8 -29 -8 5 -4 19 2 76 10 125 16 132 17 276 5 430 -33 l130 -33 7 -60 c3
-33 12 -154 19 -268 15 -236 4 -483 -31 -713 -31 -197 -90 -401 -113 -387 -6
3 -36 8 -66 9 -52 2 -156 27 -244 58 -44 15 -32 25 31 27 l37 2 -40 7 c-27 4
-48 2 -64 -8 -17 -10 -25 -11 -31 -3 -4 7 -11 11 -16 10 -18 -5 -135 62 -128
73 4 6 3 8 -4 4 -12 -7 -125 58 -115 67 3 4 11 7 16 7 6 0 7 -3 4 -7 -9 -9 44
-43 56 -36 5 3 13 -1 18 -8 4 -7 11 -10 16 -5 4 4 -1 13 -12 19 -20 12 -26 14
-47 16 -6 0 -8 4 -5 8 4 3 -9 21 -28 40 -20 19 -33 38 -30 43 3 4 -5 6 -17 2
l-21 -5 22 -19 c13 -10 19 -18 15 -18 -19 1 -40 26 -41 48 -1 17 2 22 13 18 8
-3 17 1 20 9 4 8 12 15 20 15 17 0 18 -16 2 -24 -7 -3 0 -4 15 -1 22 4 27 3
21 -7 -4 -7 -4 -10 1 -6 17 16 44 -12 40 -41 -3 -29 -3 -29 27 -19 17 6 33 7
37 2 3 -5 15 -11 26 -12 28 -5 17 4 -105 84 -117 77 -126 82 -115 64 6 -10 1
-11 -21 -6 -27 7 -27 6 -10 -7 10 -8 16 -19 12 -25 -4 -7 -1 -12 6 -12 7 -1
-3 -9 -22 -20 -19 -11 -31 -19 -26 -20 5 0 7 -3 3 -6 -9 -9 -108 76 -101 87 3
5 -1 6 -9 3 -15 -5 -34 9 -169 130 -75 66 -90 86 -67 86 5 0 7 -4 4 -10 -10
-16 11 -12 25 5 10 12 16 13 27 4 7 -7 16 -9 20 -6 3 4 -2 9 -11 13 -9 3 -13
11 -9 17 3 5 1 7 -5 3 -6 -3 -13 -2 -17 4 -3 5 -12 10 -18 10 -7 0 -3 -8 8
-17 l20 -16 -20 8 c-33 12 -50 11 -47 -4 3 -12 1 -12 -15 0 -26 20 -52 53 -47
59 3 2 16 -9 30 -25 14 -17 22 -23 18 -15 -16 33 -38 50 -57 44 -14 -4 -18 -2
-15 7 6 17 -9 49 -23 49 -6 0 -3 -7 5 -16 9 -8 16 -18 16 -22 -1 -4 -40 36
-87 88 -133 145 -283 292 -335 328 -64 44 -168 82 -223 82 -25 0 -45 -3 -45
-7 0 -14 83 -114 174 -208 53 -54 96 -103 96 -107 0 -9 -9 -13 -51 -22 -15 -3
-58 -30 -95 -59 -38 -29 -82 -58 -97 -65 -19 -8 -27 -18 -23 -27 3 -8 4 -15 2
-15 -3 0 -12 -3 -22 -7 -12 -4 -15 -3 -10 5 4 7 2 12 -4 12 -7 0 -10 -6 -7
-14 4 -9 -9 -24 -34 -40 -21 -15 -39 -31 -39 -37 0 -7 6 -7 18 2 15 13 16 12
3 -3 -9 -12 -21 -16 -40 -12 -17 4 -22 3 -13 -4 16 -11 -7 -27 -83 -61 -95
-42 -200 -61 -340 -61 -195 0 -348 39 -439 110 -89 70 -156 160 -195 258 -23
59 -29 180 -10 229 39 105 178 202 376 263 157 48 344 46 549 -6 l101 -26 37
24 c19 12 36 28 36 34 0 12 -59 68 -96 91 -18 12 -14 17 46 74 153 145 406
269 600 297 105 15 346 14 439 -3z m-516 -1027 c-7 -14 -23 -9 -23 7 0 9 -6
12 -17 9 -14 -5 -15 -4 -4 4 14 10 -2 28 -17 18 -4 -2 -8 4 -8 14 0 16 6 13
37 -13 19 -18 34 -35 32 -39z m-150 -295 c-13 -2 -23 -9 -23 -14 0 -5 -16 -16
-36 -24 l-36 -15 17 -27 c18 -28 18 -28 -2 -10 -18 15 -55 26 -40 11 13 -13
-14 -44 -38 -44 -14 0 -34 -9 -45 -20 -11 -11 -26 -20 -34 -20 -8 0 -17 -4
-21 -9 -3 -6 -36 -25 -73 -45 -151 -77 -177 -96 -135 -96 30 0 6 -11 -30 -13
-20 -2 -34 0 -31 5 6 9 -8 10 -29 2 -9 -3 -13 -13 -10 -25 6 -23 -10 -25 -28
-3 -10 13 -10 17 2 25 8 5 20 9 27 9 8 0 40 25 72 56 37 35 63 53 71 48 7 -4
10 -3 5 4 -8 14 50 55 65 46 8 -5 9 -3 4 6 -6 10 -4 12 9 7 9 -4 15 -3 12 1
-3 5 12 18 32 29 20 11 67 36 104 56 73 40 149 66 188 65 23 -1 23 -1 3 -5z
m1009 -128 c0 -5 -5 -11 -11 -13 -6 -2 -11 4 -11 13 0 9 5 15 11 13 6 -2 11
-8 11 -13z m-44 -59 c-2 -7 8 -23 22 -36 l25 -21 -32 17 c-28 16 -43 54 -20
54 4 0 7 -6 5 -14z m-3594 -58 l6 -31 20 23 c13 15 20 18 21 9 2 -66 11 -166
14 -177 4 -9 0 -10 -15 -2 -20 11 -29 -3 -10 -15 6 -3 10 -11 10 -17 0 -7 -6
-6 -15 2 -25 21 -17 3 13 -27 15 -15 44 -37 65 -47 20 -11 35 -21 33 -24 -3
-2 -29 9 -58 25 -80 45 -94 72 -101 196 -4 57 -10 113 -14 123 -6 16 -4 17 9
6 9 -7 18 -27 22 -44z m2903 -10 c-2 -13 -4 -3 -4 22 0 25 2 35 4 23 2 -13 2
-33 0 -45z m-397 48 c0 -2 -8 -10 -17 -17 -16 -13 -17 -12 -4 4 13 16 21 21
21 13z m1277 -2 c-3 -3 -12 -4 -19 -1 -8 3 -5 6 6 6 11 1 17 -2 13 -5z m-3770
-36 c-3 -8 -6 -5 -6 6 -1 11 2 17 5 13 3 -3 4 -12 1 -19z m2293 2 c0 -5 -8
-10 -17 -10 -15 0 -16 2 -3 10 19 12 20 12 20 0z m96 -19 c-4 -5 -1 -11 5 -13
8 -3 7 -7 -2 -15 -11 -9 -14 -6 -15 13 -1 13 2 24 8 24 5 0 7 -4 4 -9z m809
-28 c34 -38 44 -63 24 -63 -5 0 -7 5 -3 11 3 6 -11 28 -32 50 -21 21 -35 39
-31 39 4 0 22 -17 42 -37z m-298 -25 c-3 -7 -5 -2 -5 12 0 14 2 19 5 13 2 -7
2 -19 0 -25z m-2822 -79 c-4 -5 -2 -8 3 -7 10 4 114 -94 107 -100 -3 -3 -15 3
-27 14 -12 10 -18 14 -15 7 10 -17 -10 -26 -30 -14 -17 10 -17 10 0 11 23 0
21 10 -8 43 -29 32 -35 34 -28 7 3 -10 14 -22 25 -26 11 -3 17 -8 14 -12 -3
-3 -17 1 -31 8 -18 10 -26 24 -30 59 -3 25 -8 57 -11 71 -3 19 1 16 16 -13 12
-21 18 -42 15 -48z m3003 67 c15 -8 59 -41 97 -74 51 -44 73 -58 83 -50 6 6
12 18 12 27 0 9 6 4 15 -13 18 -35 19 -47 1 -23 -13 16 -14 16 -19 -5 -4 -14
-1 -29 8 -38 9 -9 15 -10 15 -3 0 6 -6 14 -12 16 -7 3 -8 6 -3 6 27 2 38 -20
40 -76 2 -36 13 -82 29 -120 32 -75 44 -129 28 -119 -8 5 -12 0 -12 -13 0 -24
-10 -27 -29 -8 -11 10 -12 9 -6 -3 8 -13 7 -13 -8 -1 -10 8 -20 12 -22 9 -5
-5 6 -19 63 -83 28 -31 55 -76 49 -81 -3 -3 -145 92 -157 106 -3 3 -32 28 -66
57 -88 75 -193 229 -245 358 -32 80 -39 98 -39 104 0 3 4 1 8 -4 11 -15 79
-65 89 -65 4 0 9 19 10 41 3 41 17 69 35 69 5 0 21 -6 36 -14z m-948 -56 c0
-21 -5 -30 -16 -30 -8 0 -12 -5 -9 -10 4 -6 16 -8 28 -4 45 13 1 -14 -56 -35
-75 -27 -85 -25 -22 5 37 18 43 23 23 21 -16 -2 -28 0 -28 4 0 5 7 9 16 9 8 0
12 5 9 10 -3 6 -1 10 6 10 7 0 9 3 6 7 -8 7 21 43 35 43 4 0 8 -13 8 -30z
m1132 -25 c-6 -12 -11 -14 -16 -6 -4 6 -2 11 4 11 7 0 9 7 5 18 -5 13 -3 14 5
5 8 -7 9 -17 2 -28z m353 -80 c17 -11 41 -26 55 -33 14 -7 36 -21 49 -31 l25
-19 -33 -50 c-17 -28 -38 -79 -46 -114 l-14 -63 0 50 c1 90 0 95 -20 95 -11 0
-22 10 -26 23 -4 13 -8 17 -12 9 -2 -6 -9 -10 -14 -6 -5 3 -9 -10 -10 -28 0
-27 -2 -30 -9 -13 -7 16 -9 13 -9 -17 -1 -20 4 -40 9 -43 6 -3 9 -14 9 -23 -1
-15 -2 -15 -6 1 -9 36 -20 15 -15 -30 2 -27 1 -45 -3 -41 -4 3 -7 38 -7 77 0
41 -4 71 -10 71 -9 0 -6 138 5 200 2 14 5 29 6 34 0 5 11 1 24 -10 12 -11 36
-28 52 -39z m-3530 -5 c3 -5 1 -10 -4 -10 -6 0 -11 5 -11 10 0 6 2 10 4 10 3
0 8 -4 11 -10z m149 -27 c4 -5 22 -13 39 -20 l32 -12 -35 2 c-23 1 -34 -2 -33
-10 2 -7 -3 -10 -11 -7 -8 3 -17 1 -20 -4 -6 -11 70 -26 85 -17 9 6 13 -8 4
-17 -7 -6 -133 27 -143 37 -4 4 3 4 16 0 24 -7 56 11 46 26 -3 5 3 6 13 3 14
-5 15 -4 4 4 -8 6 -20 8 -28 5 -7 -3 -13 0 -13 6 0 12 33 15 44 4z m1001 -13
c-3 -5 -12 -10 -20 -10 -8 0 -17 -5 -21 -12 -4 -6 -3 -8 3 -5 18 11 93 25 87
16 -3 -5 -15 -9 -27 -9 -16 0 -18 -3 -9 -9 8 -4 13 -12 13 -17 0 -5 20 -9 45
-8 32 0 40 -2 28 -9 -14 -8 -232 7 -241 17 -2 2 20 11 49 20 29 9 60 21 68 26
20 13 33 13 25 0z m2829 -130 c60 -11 122 -20 138 -20 16 0 31 -6 34 -13 10
-26 -129 -323 -146 -312 -6 4 -7 -2 -3 -12 6 -16 5 -17 -12 -3 -17 14 -18 14
-6 -7 7 -15 8 -23 1 -23 -5 0 -13 18 -16 40 -6 34 -10 40 -30 40 -13 0 -24 4
-24 8 0 5 -7 9 -15 9 -8 0 -16 -4 -16 -9 -1 -4 -3 -12 -4 -18 -1 -5 -3 -14 -4
-19 0 -5 -9 -12 -18 -15 -15 -6 -15 -4 2 14 20 22 14 26 -15 10 -15 -8 -18 -7
-14 3 3 8 -2 17 -10 20 -11 4 -13 1 -10 -11 4 -12 -1 -10 -15 7 -12 12 -18 28
-14 34 3 6 1 7 -5 3 -21 -13 -42 50 -42 124 0 76 8 99 48 143 31 33 49 34 196
7z m-474 -195 c6 -3 10 1 10 9 0 10 6 13 16 9 9 -3 19 0 24 6 4 7 12 -20 19
-64 14 -98 14 -105 -5 -105 -13 0 -14 -3 -5 -14 7 -9 8 -17 2 -20 -5 -3 -11 0
-14 6 -2 7 -7 10 -11 6 -8 -7 2 -40 63 -202 23 -60 41 -117 41 -127 0 -9 3
-19 8 -21 4 -1 18 -23 31 -46 23 -43 23 -44 5 -78 -10 -19 -21 -34 -25 -34 -9
0 -74 145 -98 219 -11 35 -27 98 -35 140 -8 42 -26 130 -41 195 -17 80 -23
131 -18 155 l6 36 9 -32 c5 -18 13 -35 18 -38z m108 -170 c-3 -3 -9 2 -12 12
-6 14 -5 15 5 6 7 -7 10 -15 7 -18z m347 -55 c3 -6 -1 -7 -9 -4 -18 7 -21 14
-7 14 6 0 13 -4 16 -10z m-205 -115 c19 -19 32 -35 29 -35 -3 0 -20 16 -39 35
-19 19 -32 35 -29 35 3 0 20 -16 39 -35z"/>
<path d="M2473 7283 c9 -2 23 -2 30 0 6 3 -1 5 -18 5 -16 0 -22 -2 -12 -5z"/>
<path d="M3867 6993 c18 -2 50 -2 70 0 21 2 7 4 -32 4 -38 0 -55 -2 -38 -4z"/>
<path d="M3996 6628 c-3 -18 -9 -125 -12 -238 -5 -163 -3 -219 9 -275 17 -75
61 -185 76 -185 9 0 27 84 35 175 11 113 26 523 20 539 -5 12 -20 16 -64 16
-57 0 -58 0 -64 -32z"/>
<path d="M3958 5544 c-89 -48 -135 -326 -80 -486 51 -147 152 -254 240 -252
48 1 61 9 47 28 -88 124 -117 176 -141 254 -30 97 -36 213 -20 380 9 101 7
105 -46 76z"/>
<path d="M3790 4570 c0 -5 5 -10 11 -10 5 0 7 5 4 10 -3 6 -8 10 -11 10 -2 0
-4 -4 -4 -10z"/>
<path d="M3812 4530 c7 -10 14 -18 15 -16 6 6 -9 36 -18 36 -5 0 -4 -9 3 -20z"/>
<path d="M5428 4383 c7 -3 16 -2 19 1 4 3 -2 6 -13 5 -11 0 -14 -3 -6 -6z"/>
<path d="M5288 6483 c12 -2 30 -2 40 0 9 3 -1 5 -23 4 -22 0 -30 -2 -17 -4z"/>
<path d="M6653 5115 c0 -8 4 -12 9 -9 5 3 6 10 3 15 -9 13 -12 11 -12 -6z"/>
<path d="M6670 5094 c0 -6 8 -18 18 -27 16 -14 17 -14 19 10 1 19 -1 22 -8 12
-8 -12 -10 -12 -19 1 -5 8 -10 10 -10 4z"/>
<path d="M6915 4930 c3 -5 11 -10 16 -10 6 0 7 5 4 10 -3 6 -11 10 -16 10 -6
0 -7 -4 -4 -10z"/>
<path d="M5998 4903 c7 -3 16 -2 19 1 4 3 -2 6 -13 5 -11 0 -14 -3 -6 -6z"/>
<path d="M6950 4906 c0 -2 7 -7 16 -10 8 -3 12 -2 9 4 -6 10 -25 14 -25 6z"/>
<path d="M5955 4890 c-3 -6 1 -7 9 -4 18 7 21 14 7 14 -6 0 -13 -4 -16 -10z"/>
<path d="M7004 4862 c4 -7 13 -12 20 -12 15 0 56 -42 56 -58 0 -7 8 -12 19
-12 10 0 35 -13 56 -30 32 -26 35 -30 16 -30 -11 0 -21 -4 -21 -10 0 -14 36
-12 48 3 8 9 -11 29 -79 80 -90 68 -129 91 -115 69z"/>
<path d="M5838 4843 c7 -3 16 -2 19 1 4 3 -2 6 -13 5 -11 0 -14 -3 -6 -6z"/>
<path d="M6943 4833 c-7 -2 -13 -9 -13 -15 0 -6 7 -8 15 -5 8 4 17 1 21 -5 4
-7 3 -8 -4 -4 -7 4 -12 2 -12 -3 0 -6 6 -11 13 -11 6 0 25 -13 40 -30 23 -24
32 -28 48 -20 25 14 24 30 -2 30 -11 0 -17 -4 -14 -10 3 -5 2 -10 -4 -10 -17
0 -21 17 -6 30 7 6 11 19 8 28 -6 15 -5 16 13 2 19 -14 19 -14 0 8 -19 22 -46
30 -46 13 0 -5 7 -17 16 -25 9 -9 11 -16 4 -16 -6 0 -22 11 -36 25 -14 14 -26
25 -27 24 -1 0 -8 -3 -14 -6z"/>
<path d="M5830 4820 c-9 -6 -10 -10 -3 -10 6 0 15 5 18 10 8 12 4 12 -15 0z"/>
<path d="M7118 4733 c-10 -2 -18 -9 -18 -14 0 -5 -14 -7 -32 -5 -30 4 -31 3
-13 -10 11 -8 29 -23 41 -33 16 -15 21 -16 21 -5 0 7 -5 14 -10 14 -5 0 -4 7
3 15 7 8 9 15 4 15 -5 1 2 7 16 15 25 14 21 17 -12 8z"/>
<path d="M7207 4713 c-7 -12 -5 -66 2 -56 3 6 19 13 35 17 23 6 27 9 15 16 -8
6 -15 6 -17 0 -5 -13 -32 -13 -32 0 0 6 5 10 10 10 6 0 10 5 10 10 0 12 -17
13 -23 3z"/>
<path d="M7250 4654 c-33 -13 -33 -14 -5 -8 17 3 34 10 40 15 11 11 8 11 -35
-7z"/>
<path d="M7182 4631 c-11 -6 -10 -10 0 -19 11 -8 14 -7 14 9 0 10 0 19 -1 19
0 0 -6 -4 -13 -9z"/>
<path d="M7216 4615 c-3 -8 -1 -15 3 -15 5 0 11 7 15 15 3 8 1 15 -3 15 -5 0
-11 -7 -15 -15z"/>
<path d="M7255 4608 c4 -11 2 -18 -4 -18 -6 0 -11 -4 -11 -10 0 -16 20 -12 27
6 3 8 0 21 -6 27 -9 9 -11 8 -6 -5z"/>
<path d="M7495 4460 c3 -5 8 -10 11 -10 2 0 4 5 4 10 0 6 -5 10 -11 10 -5 0
-7 -4 -4 -10z"/>
<path d="M7613 4443 c-7 -2 -13 -9 -13 -15 0 -7 5 -6 14 1 10 8 20 8 42 -4 16
-8 38 -14 49 -14 12 1 5 6 -17 13 -20 6 -40 14 -44 19 -8 8 -13 8 -31 0z"/>
<path d="M7511 4424 c0 -11 3 -14 6 -6 3 7 2 16 -1 19 -3 4 -6 -2 -5 -13z"/>
<path d="M7514 4388 c10 -6 22 -6 26 -2 5 5 -3 10 -18 11 -22 1 -24 0 -8 -9z"/>
<path d="M7560 4380 c-8 -5 -10 -10 -5 -10 6 0 17 5 25 10 8 5 11 10 5 10 -5
0 -17 -5 -25 -10z"/>
<path d="M7814 4379 c11 -6 59 -12 112 -13 74 -1 94 -4 98 -16 2 -8 4 -5 5 8
1 21 -2 22 -83 22 -46 0 -99 3 -117 6 -29 5 -31 4 -15 -7z"/>
<path d="M7858 4343 c12 -2 32 -2 45 0 12 2 2 4 -23 4 -25 0 -35 -2 -22 -4z"/>
<path d="M5805 4430 c-3 -5 -2 -10 4 -10 5 0 13 5 16 10 3 6 2 10 -4 10 -5 0
-13 -4 -16 -10z"/>
<path d="M3690 4309 c0 -5 5 -7 10 -4 6 3 10 8 10 11 0 2 -4 4 -10 4 -5 0 -10
-5 -10 -11z"/>
<path d="M6740 4250 c0 -5 5 -10 10 -10 6 0 10 5 10 10 0 6 -4 10 -10 10 -5 0
-10 -4 -10 -10z"/>
<path d="M6770 4210 c0 -5 4 -10 9 -10 5 0 13 -10 17 -22 8 -26 64 -88 64 -71
0 6 -4 13 -8 15 -5 2 -23 24 -41 51 -32 47 -41 55 -41 37z"/>
<path d="M7012 4180 c0 -14 2 -19 5 -12 2 6 2 18 0 25 -3 6 -5 1 -5 -13z"/>
<path d="M6935 3980 c10 -11 20 -20 22 -20 1 0 3 9 3 20 0 14 -7 20 -22 20
-20 0 -21 -1 -3 -20z"/>
<path d="M7056 3954 c-4 -14 -5 -28 -3 -31 3 -2 8 8 11 23 4 14 5 28 3 31 -3
2 -8 -8 -11 -23z"/>
<path d="M7263 4266 c4 -10 7 -24 7 -32 0 -8 6 -14 14 -14 8 0 18 -5 22 -12 5
-8 2 -9 -9 -5 -19 7 -23 -8 -6 -19 8 -4 7 -9 -2 -16 -10 -7 -6 -8 12 -4 19 4
29 1 33 -10 3 -8 10 -12 16 -9 7 4 7 12 0 25 -7 13 -6 20 3 23 6 2 10 6 7 8
-64 55 -103 80 -97 65z"/>
<path d="M7367 4193 c-9 -15 -5 -63 5 -57 5 3 7 13 4 21 -4 10 -1 13 13 8 11
-3 22 -1 26 4 3 7 0 8 -10 5 -10 -4 -15 -2 -13 6 3 14 -18 25 -25 13z"/>
<path d="M7426 4153 c-6 -14 -5 -15 5 -6 7 7 10 15 7 18 -3 3 -9 -2 -12 -12z"/>
<path d="M7377 4123 c-11 -11 -8 -20 7 -20 8 0 12 6 9 14 -6 15 -7 15 -16 6z"/>
<path d="M7800 4041 c22 -6 23 -8 7 -14 -21 -8 -14 -27 9 -27 8 0 12 5 9 10
-3 6 -1 10 4 10 6 0 11 -4 11 -10 0 -5 8 -10 18 -10 14 0 14 2 3 9 -11 7 -10
10 5 14 15 4 13 5 -6 6 -16 1 -21 4 -13 9 7 4 -6 8 -30 9 -31 0 -36 -1 -17 -6z"/>
<path d="M7760 4030 c0 -5 5 -10 11 -10 5 0 7 5 4 10 -3 6 -8 10 -11 10 -2 0
-4 -4 -4 -10z"/>
<path d="M7755 4000 c-3 -6 1 -7 9 -4 18 7 21 14 7 14 -6 0 -13 -4 -16 -10z"/>
<path d="M7850 3974 c0 -8 5 -12 10 -9 6 4 8 11 5 16 -9 14 -15 11 -15 -7z"/>
<path d="M7718 3935 c23 -17 113 -47 120 -40 11 11 -14 25 -46 25 -20 0 -46 7
-56 15 -11 8 -24 15 -30 15 -6 0 -1 -7 12 -15z"/>
<path d="M4885 8233 c-170 -12 -522 -88 -735 -159 -107 -36 -338 -130 -354
-145 -5 -4 15 -2 45 6 30 8 84 15 121 15 50 0 76 5 102 21 50 29 143 36 185
15 31 -16 34 -16 59 0 18 12 60 20 137 25 60 4 152 15 203 23 52 8 138 18 191
22 l98 7 6 51 c4 28 9 67 13 86 7 39 8 39 -71 33z"/>
<path d="M6644 6987 c-18 -12 -40 -27 -50 -34 -18 -12 -18 -12 1 -6 11 3 25
10 32 15 7 6 18 6 24 2 8 -4 9 -3 5 4 -4 7 -3 12 2 12 6 0 12 7 16 15 3 8 4
15 3 14 -1 0 -16 -10 -33 -22z"/>
<path d="M6950 6991 c0 -10 19 -25 25 -20 1 2 -3 10 -11 17 -8 7 -14 8 -14 3z"/>
<path d="M7440 6980 c0 -5 7 -10 16 -10 9 0 12 -5 8 -12 -4 -7 -3 -8 4 -4 16
10 15 14 -8 26 -14 7 -20 7 -20 0z"/>
<path d="M6698 6693 c12 -2 32 -2 45 0 12 2 2 4 -23 4 -25 0 -35 -2 -22 -4z"/>
<path d="M6360 6682 c0 -4 21 -6 48 -4 75 5 82 10 15 11 -35 0 -63 -2 -63 -7z"/>
<path d="M4684 6654 c-18 -14 -18 -15 4 -4 12 6 22 13 22 15 0 8 -5 6 -26 -11z"/>
<path d="M6685 6599 c-21 -5 -84 -8 -140 -5 -56 2 -91 0 -80 -4 11 -5 182 -8
380 -8 341 1 349 2 153 8 -114 4 -222 10 -240 13 -18 3 -51 1 -73 -4z"/>
<path d="M6378 6433 c34 -2 90 -2 125 0 34 2 6 3 -63 3 -69 0 -97 -1 -62 -3z"/>
<path d="M5972 6380 c-18 -10 -65 -21 -103 -25 -39 -4 -68 -9 -65 -12 2 -3 37
-6 76 -7 40 -1 64 1 53 5 -13 4 -6 8 25 14 24 4 41 9 38 13 -3 3 -1 11 5 19
14 16 13 15 -29 -7z"/>
<path d="M5983 6323 c9 -2 23 -2 30 0 6 3 -1 5 -18 5 -16 0 -22 -2 -12 -5z"/>
<path d="M6038 6323 c7 -3 16 -2 19 1 4 3 -2 6 -13 5 -11 0 -14 -3 -6 -6z"/>
<path d="M3048 6173 c7 -3 16 -2 19 1 4 3 -2 6 -13 5 -11 0 -14 -3 -6 -6z"/>
<path d="M3128 6173 c7 -3 16 -2 19 1 4 3 -2 6 -13 5 -11 0 -14 -3 -6 -6z"/>
<path d="M3248 6173 c6 -2 18 -2 25 0 6 3 1 5 -13 5 -14 0 -19 -2 -12 -5z"/>
<path d="M5478 6173 c12 -2 30 -2 40 0 9 3 -1 5 -23 4 -22 0 -30 -2 -17 -4z"/>
<path d="M5928 6173 c6 -2 18 -2 25 0 6 3 1 5 -13 5 -14 0 -19 -2 -12 -5z"/>
<path d="M2508 6013 c6 -2 18 -2 25 0 6 3 1 5 -13 5 -14 0 -19 -2 -12 -5z"/>
<path d="M2608 6013 c28 -2 76 -2 105 0 28 2 5 3 -53 3 -58 0 -81 -1 -52 -3z"/>
<path d="M2578 5833 c12 -2 32 -2 45 0 12 2 2 4 -23 4 -25 0 -35 -2 -22 -4z"/>
<path d="M5148 5833 c6 -2 18 -2 25 0 6 3 1 5 -13 5 -14 0 -19 -2 -12 -5z"/>
<path d="M2503 5543 c15 -2 39 -2 55 0 15 2 2 4 -28 4 -30 0 -43 -2 -27 -4z"/>
<path d="M3098 5533 c7 -3 16 -2 19 1 4 3 -2 6 -13 5 -11 0 -14 -3 -6 -6z"/>
<path d="M2888 5498 c5 -5 16 -8 23 -6 8 3 3 7 -10 11 -17 4 -21 3 -13 -5z"/>
<path d="M3058 5283 c12 -2 32 -2 45 0 12 2 2 4 -23 4 -25 0 -35 -2 -22 -4z"/>
<path d="M3017 5256 c-3 -8 -16 -16 -29 -18 -15 -2 -23 -10 -23 -23 0 -18 7
-20 85 -21 47 0 64 1 38 3 -45 4 -48 6 -48 33 0 32 -15 48 -23 26z"/>
<path d="M2372 4425 c2 -3 82 -6 176 -7 95 -1 172 -5 172 -10 0 -4 18 -8 40
-8 22 0 40 4 40 10 0 6 72 11 183 13 100 1 2 3 -217 5 -220 1 -397 0 -394 -3z"/>
<path d="M2540 4360 c0 -22 5 -40 10 -40 6 0 10 18 10 40 0 22 -4 40 -10 40
-5 0 -10 -18 -10 -40z"/>
<path d="M2523 4293 c54 -2 139 -2 190 0 51 1 7 3 -98 3 -104 0 -146 -2 -92
-3z"/>
<path d="M2561 4126 c2 -2 118 -6 257 -9 139 -3 257 -9 262 -12 11 -7 3 -32
-13 -38 -7 -2 -3 -2 8 1 57 13 104 13 132 -1 24 -13 30 -13 30 -2 0 7 -6 11
-13 8 -6 -2 -15 0 -19 6 -3 6 2 11 12 11 15 0 16 2 3 10 -11 7 -5 10 25 12 63
3 -312 15 -509 17 -99 0 -177 -1 -175 -3z"/>
<path d="M6320 4126 c0 -2 13 -6 29 -8 17 -2 28 -1 25 4 -5 8 -54 12 -54 4z"/>
<path d="M5933 4020 c-62 -28 -85 -48 -40 -34 28 9 126 64 112 63 -5 0 -38
-13 -72 -29z"/>
<path d="M3519 4028 c7 -9 10 -22 6 -28 -4 -6 5 -10 21 -10 15 0 25 1 23 3 -2
1 -17 13 -34 27 -16 14 -24 17 -16 8z"/>
<path d="M2733 3983 c9 -2 25 -2 35 0 9 3 1 5 -18 5 -19 0 -27 -2 -17 -5z"/>
<path d="M6008 3983 c7 -3 16 -2 19 1 4 3 -2 6 -13 5 -11 0 -14 -3 -6 -6z"/>
<path d="M5164 3869 c-14 -23 -69 -129 -121 -235 l-95 -194 -37 0 c-20 0 -83
-5 -141 -11 -212 -21 -241 -27 -266 -50 -31 -29 -39 -70 -21 -106 8 -15 82
-94 165 -175 l149 -146 -47 -199 c-26 -109 -52 -216 -59 -238 -31 -109 13
-162 86 -102 36 31 145 94 308 179 l130 68 110 -53 c61 -30 161 -89 224 -131
118 -78 156 -91 182 -60 27 33 10 132 -71 404 l-40 135 165 161 c135 131 165
165 165 188 0 41 -30 84 -65 96 -30 10 -322 39 -393 40 -22 0 -35 6 -38 18 -4
9 -41 98 -83 197 -76 180 -125 255 -164 255 -9 0 -29 -19 -43 -41z m56 -251
c0 -6 29 -75 64 -152 35 -78 66 -149 69 -158 5 -15 19 -18 84 -18 122 0 273
-12 273 -22 0 -19 -220 -239 -248 -249 -8 -3 -7 -21 4 -64 19 -70 64 -279 61
-281 -1 -1 -71 31 -155 73 l-153 74 -157 -78 c-86 -43 -161 -80 -166 -82 -5
-2 -6 9 -1 25 4 16 20 94 36 174 l29 144 -127 128 c-70 70 -125 130 -122 132
3 3 79 13 170 21 90 9 167 19 170 23 4 4 19 39 34 77 15 39 48 109 74 157 43
82 61 104 61 76z"/>
<path d="M4938 3783 c7 -3 16 -2 19 1 4 3 -2 6 -13 5 -11 0 -14 -3 -6 -6z"/>
<path d="M5498 3783 c6 -2 18 -2 25 0 6 3 1 5 -13 5 -14 0 -19 -2 -12 -5z"/>
<path d="M6625 3770 c10 -11 20 -20 23 -20 3 0 -3 9 -13 20 -10 11 -20 20 -23
20 -3 0 3 -9 13 -20z"/>
<path d="M2618 3773 c7 -3 16 -2 19 1 4 3 -2 6 -13 5 -11 0 -14 -3 -6 -6z"/>
<path d="M3533 3773 c20 -2 54 -2 75 0 20 2 3 4 -38 4 -41 0 -58 -2 -37 -4z"/>
<path d="M3693 3773 c9 -2 23 -2 30 0 6 3 -1 5 -18 5 -16 0 -22 -2 -12 -5z"/>
<path d="M6058 3773 c78 -2 206 -2 285 0 78 1 14 3 -143 3 -157 0 -221 -2
-142 -3z"/>
<path d="M5490 3650 c0 -5 5 -10 11 -10 5 0 7 5 4 10 -3 6 -8 10 -11 10 -2 0
-4 -4 -4 -10z"/>
<path d="M6725 3650 c-3 -5 3 -10 15 -10 12 0 18 5 15 10 -3 6 -10 10 -15 10
-5 0 -12 -4 -15 -10z"/>
<path d="M4488 3643 c7 -3 16 -2 19 1 4 3 -2 6 -13 5 -11 0 -14 -3 -6 -6z"/>
<path d="M3238 3633 c23 -2 61 -2 85 0 23 2 4 4 -43 4 -47 0 -66 -2 -42 -4z"/>
<path d="M6018 3633 c29 -2 74 -2 100 0 26 2 2 3 -53 3 -55 0 -76 -1 -47 -3z"/>
<path d="M6333 3633 c9 -2 23 -2 30 0 6 3 -1 5 -18 5 -16 0 -22 -2 -12 -5z"/>
<path d="M3830 3438 c23 -24 48 -29 35 -7 -4 5 1 9 10 9 12 0 14 -4 5 -19 -5
-11 -10 -23 -10 -28 1 -4 7 3 14 17 11 19 25 27 58 31 37 5 32 6 -29 7 -39 1
-80 5 -90 8 -14 5 -12 1 7 -18z"/>
<path d="M3252 3443 c70 -2 187 -2 260 0 73 1 16 3 -127 3 -143 0 -203 -2
-133 -3z"/>
<path d="M6053 3443 c9 -2 23 -2 30 0 6 3 -1 5 -18 5 -16 0 -22 -2 -12 -5z"/>
<path d="M6503 3442 c-13 -8 52 -15 132 -14 27 0 56 -5 64 -11 12 -10 14 -9 9
4 -5 13 4 16 50 18 31 1 59 4 61 7 8 7 -304 4 -316 -4z"/>
<path d="M6183 3433 c26 -2 68 -2 95 0 26 2 4 3 -48 3 -52 0 -74 -1 -47 -3z"/>
<path d="M6648 3390 c28 -28 45 -32 22 -5 -15 18 1 20 18 3 9 -9 12 -9 12 -1
0 16 -20 27 -52 29 l-27 2 27 -28z"/>
<path d="M6696 3362 c-3 -5 1 -9 9 -9 8 0 12 4 9 9 -3 4 -7 8 -9 8 -2 0 -6 -4
-9 -8z"/>
<path d="M3865 3304 c-11 -17 -12 -25 -4 -22 6 2 16 14 20 26 11 29 5 28 -16
-4z"/>
<path d="M6697 3310 c8 -30 21 -34 15 -5 -2 14 -8 25 -12 25 -5 0 -6 -9 -3
-20z"/>
<path d="M3663 3303 c3 -12 0 -24 -7 -27 -6 -2 -1 -5 12 -5 26 -1 27 7 5 34
-15 20 -15 20 -10 -2z"/>
<path d="M3773 3073 c26 -2 68 -2 95 0 26 2 4 3 -48 3 -52 0 -74 -1 -47 -3z"/>
<path d="M3298 3063 c12 -2 32 -2 45 0 12 2 2 4 -23 4 -25 0 -35 -2 -22 -4z"/>
<path d="M6038 3063 c67 -2 177 -2 245 0 67 1 12 3 -123 3 -135 0 -190 -2
-122 -3z"/>
<path d="M4642 3000 c7 -11 17 -20 22 -20 5 0 1 9 -9 20 -10 11 -20 20 -22 20
-2 0 2 -9 9 -20z"/>
<path d="M4680 2961 c0 -5 5 -13 10 -16 6 -3 10 -2 10 4 0 5 -4 13 -10 16 -5
3 -10 2 -10 -4z"/>
<path d="M3848 2763 c83 -2 221 -2 305 0 83 1 15 3 -153 3 -168 0 -236 -2
-152 -3z"/>
<path d="M4508 2763 c28 -2 76 -2 105 0 28 2 5 3 -53 3 -58 0 -81 -1 -52 -3z"/>
<path d="M6203 2753 c115 -2 299 -2 410 0 111 1 18 2 -208 2 -225 0 -316 -1
-202 -2z"/>
<path d="M4258 2473 c12 -2 32 -2 45 0 12 2 2 4 -23 4 -25 0 -35 -2 -22 -4z"/>
</g>
</svg>
